<svg xmlns="http://www.w3.org/2000/svg" xmlns:xlink="http://www.w3.org/1999/xlink" aria-hidden="true" role="img" width="256" height="256" viewBox="0 0 256 256" preserveAspectRatio="xMidYMid meet">
  <rect width="256" height="256" fill="#F7DF1E"></rect>
  <path fill="#000" d="M67.733 214.086l20.69-12.62c4 7.14 7.67 13.17 16.393 13.17c8.365 0 13.64-3.275 13.64-15.92v-85.877h25.08v85.983c0 25.949-15.154 37.76-37.255 37.76c-19.94 0-31.536-10.326-37.548-22.496Zm87.03-1.427l20.69-12.02c5.442 8.984 12.48 15.573 24.96 15.573c10.482 0 17.159-5.242 17.159-12.48c0-8.654-6.86-11.72-18.392-16.78l-6.313-2.71c-18.243-7.788-30.366-17.57-30.366-38.32c0-19.073 14.506-33.56 37.164-33.56c16.14 0 27.79 5.622 36.15 20.365l-19.81 12.748c-4.36-7.788-9.072-10.897-16.34-10.897c-7.456 0-12.16 4.705-12.16 10.897c0 7.61 4.704 10.683 15.566 15.394l6.313 2.71c21.515 9.233 33.64 18.814 33.64 40.167c0 22.985-18.076 35.517-42.406 35.517c-23.754 0-39.083-11.396-46.517-26.285Z"></path>
</svg>
